<svg width="20" height="20" viewBox="0 0 20 20" fill="none" xmlns="http://www.w3.org/2000/svg">
<path fill-rule="evenodd" clip-rule="evenodd" d="M0 15.714C0 16.8969 0.957143 17.8569 2.14 17.8569H17.86C19.0429 17.8569 20 16.8969 20 15.714V12.8083C20.0001 12.6513 19.9486 12.4987 19.8533 12.374C19.758 12.2493 19.6243 12.1594 19.4729 12.1183C19.008 11.9917 18.5976 11.7157 18.3051 11.3328C18.0125 10.95 17.854 10.4815 17.854 9.99972C17.854 9.5179 18.0125 9.04945 18.3051 8.6666C18.5976 8.28374 19.008 8.00775 19.4729 7.88115C19.6243 7.84003 19.758 7.75017 19.8533 7.62545C19.9486 7.50073 20.0001 7.3481 20 7.19115V4.28544C20 3.10258 19.0429 2.14258 17.86 2.14258H2.14C0.957143 2.14258 0 3.10258 0 4.28544V7.18544C0.000189937 7.34314 0.0525637 7.49634 0.148953 7.62116C0.245342 7.74597 0.380328 7.83538 0.532857 7.87544C1.00268 7.99829 1.41852 8.27343 1.7153 8.65781C2.01209 9.04218 2.17308 9.5141 2.17308 9.99972C2.17308 10.4853 2.01209 10.9573 1.7153 11.3416C1.41852 11.726 1.00268 12.0012 0.532857 12.124C0.380328 12.1641 0.245342 12.2535 0.148953 12.3783C0.0525637 12.5031 0.000189937 12.6563 0 12.814L0 15.714ZM7.08857 14.2026L14.2314 7.05972C14.3908 6.89082 14.4782 6.66646 14.4749 6.43423C14.4716 6.20201 14.3779 5.9802 14.2138 5.81589C14.0497 5.65157 13.828 5.55767 13.5958 5.55412C13.3635 5.55057 13.1391 5.63764 12.97 5.79686L5.82714 12.9397C5.74017 13.0216 5.67052 13.1201 5.62231 13.2295C5.57411 13.3388 5.54833 13.4566 5.5465 13.5761C5.54467 13.6955 5.56684 13.8141 5.61168 13.9249C5.65652 14.0356 5.72313 14.1362 5.80755 14.2207C5.89198 14.3052 5.99251 14.372 6.10319 14.4169C6.21387 14.4619 6.33245 14.4842 6.4519 14.4825C6.57135 14.4808 6.68925 14.4552 6.79861 14.4071C6.90797 14.359 7.00657 14.2895 7.08857 14.2026ZM5.74429 7.14258C5.74429 6.7637 5.8948 6.40034 6.1627 6.13243C6.43061 5.86452 6.79398 5.71401 7.17286 5.71401C7.55174 5.71401 7.9151 5.86452 8.18301 6.13243C8.45092 6.40034 8.60143 6.7637 8.60143 7.14258C8.60143 7.52146 8.45092 7.88482 8.18301 8.15273C7.9151 8.42064 7.55174 8.57115 7.17286 8.57115C6.79398 8.57115 6.43061 8.42064 6.1627 8.15273C5.8948 7.88482 5.74429 7.52146 5.74429 7.14258ZM11.4586 12.8569C11.4586 12.478 11.6091 12.1146 11.877 11.8467C12.1449 11.5788 12.5083 11.4283 12.8871 11.4283C13.266 11.4283 13.6294 11.5788 13.8973 11.8467C14.1652 12.1146 14.3157 12.478 14.3157 12.8569C14.3157 13.2357 14.1652 13.5991 13.8973 13.867C13.6294 14.1349 13.266 14.2854 12.8871 14.2854C12.5083 14.2854 12.1449 14.1349 11.877 13.867C11.6091 13.5991 11.4586 13.2357 11.4586 12.8569Z" fill="#3B4149"/>
</svg>
