<svg width="24" height="24" viewBox="0 0 24 24" fill="none" xmlns="http://www.w3.org/2000/svg">
<path d="M10.2941 2.567C11.3924 1.75695 12.878 1.81486 13.9209 2.74074L22.1406 9.59347L22.2158 9.66733C22.5704 10.0531 22.6 10.6709 22.2685 11.0947C21.9371 11.5183 21.3616 11.5985 20.9415 11.2965L20.8594 11.231L12.6407 4.3772C12.2931 4.06858 11.7979 4.04999 11.4318 4.31998L11.3595 4.3772L3.14113 11.231C2.7169 11.6076 2.08557 11.5466 1.732 11.0947C1.37848 10.6427 1.43575 9.97014 1.85993 9.59347L10.0793 2.74074L10.2941 2.567Z" fill="#6A7685"/>
<path d="M13.0001 19.7612V15.5H11.0002V19.7612C11.0002 20.9379 10.1048 21.8919 9.00023 21.8919H5.50041C4.39588 21.8919 3.50049 20.9379 3.50049 19.7612V10.9119L5.50041 9.13599V19.7612H9.00023V15.5C9.00023 14.3233 9.89563 13.3694 11.0002 13.3694H13.0001C14.1046 13.3694 15 14.3233 15 15.5V19.7612H18.5001V9.13599L20.5001 10.9119V19.7612C20.5001 20.9379 19.6047 21.8919 18.5001 21.8919H15C13.8955 21.8919 13.0001 20.9379 13.0001 19.7612Z" fill="#6A7685"/>
</svg>
