<svg width="84" height="14" viewBox="0 0 84 14" fill="none" xmlns="http://www.w3.org/2000/svg">
<path d="M79.0022 2.96C80.3299 2.96 81.451 3.24 82.3654 3.8C83.2237 4.30621 83.6846 5.07538 83.7481 6.10752C83.7567 6.24667 83.6427 6.36 83.5033 6.36H80.5323C80.3928 6.36 80.2843 6.24538 80.2536 6.10938C80.1956 5.85271 80.0415 5.66291 79.7913 5.54C79.5658 5.40666 79.284 5.34 78.9458 5.34C78.044 5.34 77.593 5.56666 77.593 6.02C77.593 6.27333 77.7496 6.45333 78.0627 6.56C78.3759 6.66666 78.8894 6.78 79.6034 6.9C80.4802 7.03333 81.213 7.19333 81.8017 7.38C82.3904 7.55333 82.904 7.87333 83.3424 8.34C83.7808 8.79333 84 9.43333 84 10.26C84 11.6067 83.524 12.5667 82.572 13.14C81.6326 13.7133 80.3988 14 78.8707 14C77.9939 14 77.1671 13.8733 76.3905 13.62C75.6139 13.3533 74.9814 12.9467 74.4929 12.4C74.0542 11.9091 73.8125 11.2999 73.7677 10.5724C73.7592 10.4332 73.8732 10.32 74.0126 10.32H77.156C77.2002 10.32 77.236 10.3558 77.236 10.4C77.2486 10.8533 77.4239 11.1733 77.7621 11.36C78.1128 11.5333 78.4824 11.62 78.8707 11.62C79.9103 11.62 80.4301 11.36 80.4301 10.84C80.4301 10.5733 80.2673 10.38 79.9416 10.26C79.6159 10.14 79.0836 10.0133 78.3446 9.88C77.4552 9.72 76.7225 9.54666 76.1463 9.36C75.5826 9.17333 75.0879 8.86 74.662 8.42C74.2361 7.96666 74.0232 7.34 74.0232 6.54C74.0232 5.24666 74.4804 4.32666 75.3947 3.78C76.3217 3.23333 77.5241 2.96 79.0022 2.96Z" fill="#15C47E"/>
<path d="M71.7684 8.22C71.7684 10.1 71.211 11.5333 70.0962 12.52C68.9814 13.5067 67.3969 14 65.3427 14C63.2884 14 61.6977 13.5067 60.5703 12.52C59.4555 11.5333 58.8981 10.1 58.8981 8.22V0.25244C58.8981 0.113021 59.0112 0 59.1506 0H62.798C62.9374 0 63.0504 0.113021 63.0504 0.252439V8.16C63.0504 8.93333 63.2446 9.55333 63.6329 10.02C64.0212 10.4733 64.5848 10.7 65.3239 10.7C66.0629 10.7 66.6266 10.4667 67.0149 10C67.4157 9.53333 67.6161 8.92 67.6161 8.16V0.252439C67.6161 0.113021 67.7291 0 67.8685 0H71.516C71.6554 0 71.7684 0.113021 71.7684 0.252439V8.22Z" fill="#15C47E"/>
<path d="M52.6496 7.2C52.5102 7.2 52.3972 7.08698 52.3972 6.94756V3.45244C52.3972 3.31302 52.5102 3.2 52.6496 3.2H56.1279C56.2673 3.2 56.3804 3.31302 56.3804 3.45244V6.94756C56.3804 7.08698 56.2673 7.2 56.1279 7.2H52.6496ZM52.6496 13.76C52.5102 13.76 52.3972 13.647 52.3972 13.5076V10.0324C52.3972 9.89302 52.5102 9.78 52.6496 9.78H56.1279C56.2673 9.78 56.3804 9.89302 56.3804 10.0324V13.5076C56.3804 13.647 56.2673 13.76 56.1279 13.76H52.6496Z" fill="#15C47E"/>
<path d="M46.7604 2.96C47.8877 2.96 48.7332 3.30666 49.2969 4C49.8606 4.68 50.1424 5.65333 50.1424 6.92V13.5076C50.1424 13.647 50.0294 13.76 49.89 13.76H46.6559C46.5165 13.76 46.4034 13.647 46.4034 13.5076V7.4C46.4034 6.94666 46.297 6.58666 46.084 6.32C45.8836 6.04 45.5955 5.9 45.2197 5.9C44.7813 5.9 44.4244 6.06 44.1488 6.38C43.8732 6.7 43.7354 7.09333 43.7354 7.56V13.5076C43.7354 13.647 43.6224 13.76 43.483 13.76H40.2489C40.1095 13.76 39.9965 13.647 39.9965 13.5076V7.4C39.9965 6.94666 39.89 6.58666 39.6771 6.32C39.4767 6.04 39.1886 5.9 38.8128 5.9C38.3744 5.9 38.0174 6.06 37.7418 6.38C37.4663 6.7 37.3285 7.09333 37.3285 7.56V13.5076C37.3285 13.647 37.2155 13.76 37.0761 13.76H33.842C33.7026 13.76 33.5895 13.647 33.5895 13.5076V3.45244C33.5895 3.31302 33.7026 3.2 33.842 3.2H36.4357C36.5602 3.2 36.6661 3.2908 36.6852 3.41387L36.7976 4.14095C36.8327 4.36818 37.1409 4.44199 37.2983 4.27434C37.6046 3.94796 37.9654 3.67651 38.3807 3.46C39.007 3.12666 39.6646 2.96 40.3535 2.96C41.6656 2.96 42.5992 3.43012 43.1543 4.37037C43.2554 4.54165 43.5102 4.56818 43.6402 4.41763C43.9778 4.02666 44.379 3.70745 44.844 3.46C45.4577 3.12666 46.0966 2.96 46.7604 2.96Z" fill="#15C47E"/>
<path d="M30.3365 2.94C30.6246 2.94 30.8813 2.98 31.1068 3.06C31.3323 3.12666 31.445 3.16666 31.445 3.18V6.26756C31.445 6.40698 31.332 6.52 31.1926 6.52H30.2425C29.4659 6.52 28.9023 6.73333 28.5515 7.16C28.2134 7.58666 28.0443 8.22 28.0443 9.06V13.5076C28.0443 13.647 27.9312 13.76 27.7918 13.76H24.5577C24.4183 13.76 24.3053 13.647 24.3053 13.5076V3.45244C24.3053 3.31302 24.4183 3.2 24.5577 3.2H27.151C27.2757 3.2 27.3818 3.29106 27.4006 3.41434L27.4641 3.8303C27.5035 4.08824 27.9223 4.14915 28.0872 3.94692C28.2574 3.73816 28.456 3.56252 28.6831 3.42C29.1716 3.1 29.7227 2.94 30.3365 2.94Z" fill="#15C47E"/>
<path d="M16.6772 2.96C18.1929 2.96 19.4266 3.23333 20.3786 3.78C21.3306 4.31333 21.8066 5.18666 21.8066 6.4V10.52C21.8066 10.7467 21.8567 10.9333 21.9569 11.08C22.0571 11.2267 22.2074 11.3 22.4078 11.3H22.8317C22.9712 11.3 23.0842 11.413 23.0842 11.5524V13.4696C23.0842 13.5514 23.0432 13.6264 22.9689 13.6605C22.9204 13.6828 22.8587 13.7093 22.7836 13.74C22.6333 13.7933 22.4141 13.8467 22.126 13.9C21.8379 13.9667 21.5059 14 21.1302 14C20.4037 14 19.8024 13.8867 19.3264 13.66C18.9813 13.4813 18.7161 13.2545 18.5308 12.9797C18.4358 12.839 18.2366 12.7905 18.1006 12.892C17.695 13.1947 17.2519 13.444 16.7712 13.64C16.1825 13.88 15.4935 14 14.7044 14C12.3746 14 11.2097 13.0133 11.2097 11.04C11.2097 10.0133 11.4665 9.23333 11.9801 8.7C12.5061 8.15333 13.2577 7.78 14.2347 7.58C15.159 7.39078 16.3525 7.29107 17.815 7.28087C17.9544 7.2799 18.0676 7.16698 18.0676 7.02756V6.76C18.0676 6.34666 17.9298 6.03333 17.6542 5.82C17.3912 5.60666 17.0467 5.5 16.6209 5.5C16.2326 5.5 15.8944 5.57333 15.6063 5.72C15.3307 5.86666 15.1929 6.1 15.1929 6.42C15.1929 6.46418 15.1571 6.5 15.1129 6.5H11.7198C11.5983 6.5 11.4953 6.41298 11.4924 6.29157C11.4918 6.26887 11.4915 6.24501 11.4915 6.22C11.4915 5.22 11.9362 4.42666 12.8255 3.84C13.7274 3.25333 15.0113 2.96 16.6772 2.96ZM18.0676 9.41244C18.0676 9.27302 17.9544 9.15968 17.815 9.16248C16.8772 9.18129 16.1723 9.30713 15.7002 9.54C15.1992 9.78 14.9487 10.1067 14.9487 10.52C14.9487 11.1867 15.3745 11.52 16.2263 11.52C16.7148 11.52 17.1407 11.38 17.5039 11.1C17.8797 10.82 18.0676 10.4733 18.0676 10.06V9.41244Z" fill="#15C47E"/>
<path d="M0 0.252439C0 0.113021 0.113021 0 0.252439 0H10.1941C10.3335 0 10.4465 0.113021 10.4465 0.252439V3.04756C10.4465 3.18698 10.3335 3.3 10.1941 3.3H4.40474C4.26533 3.3 4.1523 3.41302 4.1523 3.55244V5.40756C4.1523 5.54698 4.26533 5.66 4.40474 5.66H9.31101C9.45043 5.66 9.56345 5.77302 9.56345 5.91244V8.56756C9.56345 8.70698 9.45043 8.82 9.31101 8.82H4.40474C4.26533 8.82 4.1523 8.93302 4.1523 9.07244V13.5076C4.1523 13.647 4.03928 13.76 3.89987 13.76H0.25244C0.113021 13.76 0 13.647 0 13.5076V0.252439Z" fill="#15C47E"/>
</svg>
