<svg width="24" height="24" viewBox="0 0 24 24" fill="none" xmlns="http://www.w3.org/2000/svg">
<rect width="24" height="24" rx="12" fill="black" fill-opacity="0.7"/>
<path d="M17.666 11.9297C17.8797 12.1447 18 12.436 18 12.7393C18 13.0425 17.8797 13.3338 17.666 13.5488L13.5527 17.6631C13.4462 17.7698 13.319 17.8543 13.1797 17.9121C13.0404 17.9698 12.891 18 12.7402 18C12.5895 18 12.44 17.9698 12.3008 17.9121C12.1616 17.8543 12.0352 17.7697 11.9287 17.6631L7 12.7393V7H12.7373L17.666 11.9297ZM9.43457 8.43457C8.88229 8.43457 8.43457 8.88229 8.43457 9.43457C8.43457 9.98686 8.88229 10.4346 9.43457 10.4346H9.44141C9.99369 10.4346 10.4414 9.98686 10.4414 9.43457C10.4414 8.88229 9.99369 8.43457 9.44141 8.43457H9.43457Z" fill="white"/>
</svg>
